grf
version=1
nRows=14
nColumns=37
inDegrees=no
endheader
time	ground_force_1_vx	ground_force_1_vy	ground_force_1_vz	ground_force_1_px	ground_force_1_py	ground_force_1_pz	ground_moment_1_mx	ground_moment_1_my	ground_moment_1_mz	ground_force_2_vx	ground_force_2_vy	ground_force_2_vz	ground_force_2_px	ground_force_2_py	ground_force_2_pz	ground_moment_2_mx	ground_moment_2_my	ground_moment_2_mz	ground_force_3_vx	ground_force_3_vy	ground_force_3_vz	ground_force_3_px	ground_force_3_py	ground_force_3_pz	ground_moment_3_mx	ground_moment_3_my	ground_moment_3_mz	ground_force_4_vx	ground_force_4_vy	ground_force_4_vz	ground_force_4_px	ground_force_4_py	ground_force_4_pz	ground_moment_4_mx	ground_moment_4_my	ground_moment_4_mz
      2.23000000	      0.00000000	     -0.00000000	      0.00000000	      0.00000000	      0.00000000	      0.00000000	      0.00000000	      0.00000000	      0.00000000	     -4.19508648	     35.23694992	   -374.48703003	   -283.75961258	  -1068.17912369	      0.00000000	     -0.00000000	      0.00000000	   4012.31930989	      1.35892585	    -40.53965771	   -402.92095947	   -292.72465671	   -710.13046335	      0.00000000	     -0.00000000	     -0.00000000	  -4576.49607310	      0.00000000	     -0.00000000	      0.00000000	      0.00000000	      0.00000000	      0.00000000	      0.00000000	      0.00000000	      0.00000000
      2.24000000	      0.00000000	     -0.00000000	      0.00000000	      0.00000000	      0.00000000	      0.00000000	      0.00000000	      0.00000000	      0.00000000	     -4.19418669	     35.08551788	   -375.55139160	   -282.96388806	  -1068.28600882	      0.00000000	      0.00000000	      0.00000000	   4036.35938089	      1.62714246	    -40.57104125	   -404.67135620	   -293.01136849	   -708.95743519	      0.00000000	      0.00000000	     -0.00000000	  -4685.17809599	      0.00000000	     -0.00000000	      0.00000000	      0.00000000	      0.00000000	      0.00000000	      0.00000000	      0.00000000	      0.00000000
      2.25000000	      0.00000000	     -0.00000000	      0.00000000	      0.00000000	      0.00000000	      0.00000000	      0.00000000	      0.00000000	      0.00000000	     -4.01903009	     35.20499039	   -373.66436768	   -281.75161304	  -1068.40663695	      0.00000000	      0.00000000	      0.00000000	   4157.74758765	      1.21284297	    -40.56863414	   -403.84289551	   -292.28310265	   -709.75803695	      0.00000000	      0.00000000	     -0.00000000	  -4589.41775924	      0.00000000	     -0.00000000	      0.00000000	      0.00000000	      0.00000000	      0.00000000	      0.00000000	      0.00000000	      0.00000000
      2.26000000	      0.00000000	     -0.00000000	      0.00000000	      0.00000000	      0.00000000	      0.00000000	      0.00000000	      0.00000000	      0.00000000	     -4.72644138	     35.35391617	   -374.59487915	   -281.53366108	  -1069.50093196	      0.00000000	      0.00000000	     -0.00000000	   3991.06244871	      0.91773642	    -40.09963234	   -406.18389893	   -292.41338076	   -708.96367519	      0.00000000	      0.00000000	     -0.00000000	  -4689.21856317	      0.00000000	     -0.00000000	      0.00000000	      0.00000000	      0.00000000	      0.00000000	      0.00000000	      0.00000000	      0.00000000
      2.27000000	      0.00000000	     -0.00000000	      0.00000000	      0.00000000	      0.00000000	      0.00000000	      0.00000000	      0.00000000	      0.00000000	     -5.50195217	     35.20651245	   -375.43029785	   -281.90785508	  -1068.11566123	      0.00000000	      0.00000000	      0.00000000	   4171.88966257	      0.59020956	    -40.07276159	   -406.40545654	   -292.22252112	   -709.95037364	      0.00000000	     -0.00000000	     -0.00000000	  -4539.03552851	      0.00000000	     -0.00000000	      0.00000000	      0.00000000	      0.00000000	      0.00000000	      0.00000000	      0.00000000	      0.00000000
      2.28000000	      0.00000000	     -0.00000000	      0.00000000	      0.00000000	      0.00000000	      0.00000000	      0.00000000	      0.00000000	      0.00000000	     -5.29244423	     34.97025681	   -376.84301758	   -282.09990483	  -1067.59761239	      0.00000000	      0.00000000	      0.00000000	   4355.37553717	      0.76949442	    -39.47779090	   -406.98913574	   -292.15914547	   -709.93507194	      0.00000000	      0.00000000	     -0.00000000	  -4538.55953842	      0.00000000	     -0.00000000	      0.00000000	      0.00000000	      0.00000000	      0.00000000	      0.00000000	      0.00000000	      0.00000000
      2.29000000	      0.00000000	     -0.00000000	      0.00000000	      0.00000000	      0.00000000	      0.00000000	      0.00000000	      0.00000000	      0.00000000	     -5.32366896	     34.82105255	   -378.14108276	   -281.64199725	  -1068.40505678	      0.00000000	      0.00000000	      0.00000000	   4512.78477447	      1.39273112	    -38.94986737	   -406.41247559	   -292.58939817	   -709.79284912	      0.00000000	      0.00000000	     -0.00000000	  -4522.04535080	      0.00000000	     -0.00000000	      0.00000000	      0.00000000	      0.00000000	      0.00000000	      0.00000000	      0.00000000	      0.00000000
      2.30000000	      0.00000000	     -0.00000000	      0.00000000	      0.00000000	      0.00000000	      0.00000000	      0.00000000	      0.00000000	      0.00000000	     -5.38151693	     34.37547684	   -378.38015747	   -281.41015800	  -1068.89253458	      0.00000000	      0.00000000	      0.00000000	   4431.68495689	      2.04276869	    -38.45339984	   -404.32711792	   -292.60734082	   -709.86964355	      0.00000000	      0.00000000	     -0.00000000	  -4548.18420824	      0.00000000	     -0.00000000	      0.00000000	      0.00000000	      0.00000000	      0.00000000	      0.00000000	      0.00000000	      0.00000000
      2.31000000	      0.00000000	     -0.00000000	      0.00000000	      0.00000000	      0.00000000	      0.00000000	      0.00000000	      0.00000000	      0.00000000	     -5.77535868	     34.46192551	   -375.89755249	   -281.38596236	  -1067.85605165	      0.00000000	     -0.00000000	      0.00000000	   4313.20210937	      2.63786223	    -37.85622048	   -402.59246826	   -292.98349846	   -709.47216489	      0.00000000	      0.00000000	     -0.00000000	  -4609.20273598	      0.00000000	     -0.00000000	      0.00000000	      0.00000000	      0.00000000	      0.00000000	      0.00000000	      0.00000000	      0.00000000
      2.32000000	      0.00000000	     -0.00000000	      0.00000000	      0.00000000	      0.00000000	      0.00000000	      0.00000000	      0.00000000	      0.00000000	     -4.97292328	     33.57637405	   -374.16635132	   -281.33963402	  -1068.14492447	      0.00000000	      0.00000000	      0.00000000	   4555.89066959	      2.95608456	    -37.39138438	   -400.37527466	   -293.09010547	   -711.07426344	      0.00000000	      0.00000000	     -0.00000000	  -4564.66564087	      0.00000000	     -0.00000000	      0.00000000	      0.00000000	      0.00000000	      0.00000000	      0.00000000	      0.00000000	      0.00000000
      2.33000000	      0.00000000	     -0.00000000	      0.00000000	      0.00000000	      0.00000000	      0.00000000	      0.00000000	      0.00000000	      0.00000000	     -4.36814404	     33.39524841	   -373.07156372	   -281.46775397	  -1069.30750141	      0.00000000	      0.00000000	      0.00000000	   4663.19573828	      3.70033322	    -36.98440966	   -398.83160400	   -293.17396204	   -709.87424692	      0.00000000	     -0.00000000	     -0.00000000	  -4690.90822185	      0.00000000	     -0.00000000	      0.00000000	      0.00000000	      0.00000000	      0.00000000	      0.00000000	      0.00000000	      0.00000000
      2.34000000	      0.00000000	     -0.00000000	      0.00000000	      0.00000000	      0.00000000	      0.00000000	      0.00000000	      0.00000000	      0.00000000	     -4.43191147	     33.18510056	   -372.83142090	   -280.93631040	  -1068.72501330	      0.00000000	      0.00000000	      0.00000000	   4667.52659759	      4.02694522	    -36.97519719	   -397.30905151	   -292.68557895	   -710.13044391	      0.00000000	      0.00000000	     -0.00000000	  -4542.49441412	      0.00000000	     -0.00000000	      0.00000000	      0.00000000	      0.00000000	      0.00000000	      0.00000000	      0.00000000	      0.00000000
      2.35000000	      0.00000000	     -0.00000000	      0.00000000	      0.00000000	      0.00000000	      0.00000000	      0.00000000	      0.00000000	      0.00000000	     -4.84591627	     32.71442032	   -372.25164795	   -280.29616603	  -1069.89444039	      0.00000000	      0.00000000	      0.00000000	   4844.81783588	      4.11255043	    -36.26849401	   -397.47344971	   -292.83372861	   -709.31962094	      0.00000000	      0.00000000	     -0.00000000	  -4530.35299815	      0.00000000	     -0.00000000	      0.00000000	      0.00000000	      0.00000000	      0.00000000	      0.00000000	      0.00000000	      0.00000000
      2.36000000	      0.00000000	     -0.00000000	      0.00000000	      0.00000000	      0.00000000	      0.00000000	      0.00000000	      0.00000000	      0.00000000	     -4.87810469	     32.56483078	   -369.18576050	   -280.18904666	  -1068.77507958	      0.00000000	      0.00000000	     -0.00000000	   5124.60472334	      4.22610680	    -36.33572425	   -397.80966187	   -292.73646684	   -709.45570086	      0.00000000	     -0.00000000	     -0.00000000	  -4546.79028050	      0.00000000	     -0.00000000	      0.00000000	      0.00000000	      0.00000000	      0.00000000	      0.00000000	      0.00000000	      0.00000000
